<?xml version="1.0" encoding="UTF-8" standalone="no"?>
<svg
   xmlns:dc="http://purl.org/dc/elements/1.1/"
   xmlns:cc="http://creativecommons.org/ns#"
   xmlns:rdf="http://www.w3.org/1999/02/22-rdf-syntax-ns#"
   xmlns:svg="http://www.w3.org/2000/svg"
   xmlns="http://www.w3.org/2000/svg"
   xmlns:xlink="http://www.w3.org/1999/xlink"
   xmlns:sodipodi="http://sodipodi.sourceforge.net/DTD/sodipodi-0.dtd"
   xmlns:inkscape="http://www.inkscape.org/namespaces/inkscape"
   viewBox="0 0 13.037107 13"
   version="1.1"
   id="svg1446"
   sodipodi:docname="hyperlink.svg"
   width="13.037107"
   height="13"
   inkscape:version="1.1-dev (ddb55ca, 2020-02-02)">
  <metadata
     id="metadata1452">
    <rdf:RDF>
      <cc:Work
         rdf:about="">
        <dc:format>image/svg+xml</dc:format>
        <dc:type
           rdf:resource="http://purl.org/dc/dcmitype/StillImage" />
        <dc:title></dc:title>
      </cc:Work>
    </rdf:RDF>
  </metadata>
  <defs
     id="defs1450" />
  <sodipodi:namedview
     pagecolor="#ffffff"
     bordercolor="#666666"
     borderopacity="1"
     objecttolerance="10"
     gridtolerance="10"
     guidetolerance="10"
     inkscape:pageopacity="0"
     inkscape:pageshadow="2"
     inkscape:window-width="1401"
     inkscape:window-height="855"
     id="namedview1448"
     showgrid="false"
     fit-margin-top="0"
     fit-margin-left="0"
     fit-margin-right="0"
     fit-margin-bottom="0"
     inkscape:zoom="11.333333"
     inkscape:cx="1.5384408"
     inkscape:cy="26.370983"
     inkscape:window-x="39"
     inkscape:window-y="23"
     inkscape:window-maximized="0"
     inkscape:current-layer="svg1446" />
  <g
     inkscape:export-ydpi="96"
     inkscape:export-xdpi="96"
     transform="scale(0.70068261)"
     id="g3820">
    <path
       inkscape:connector-curvature="0"
       style="fill:#4eabbf;fill-opacity:1"
       id="path1440"
       fill="#464646"
       d="m 14.603147,10.603335 a 1,1 0 0 1 -0.7,-0.29 1,1 0 0 1 0,-1.4099998 l 2.12,-2.12 a 2,2 0 0 0 0,-2.83 l -1.42,-1.42 a 2.06,2.06 0 0 0 -2.83,0 l -2.1200004,2.12 a 1,1 0 0 1 -1.41,-1.4 l 2.1200004,-2.12 a 4.1,4.1 0 0 1 5.66,0 l 1.41,1.41 a 4,4 0 0 1 0,5.66 l -2.13,2.1099998 a 1,1 0 0 1 -0.7,0.29 z"
       inkscape:export-xdpi="96"
       inkscape:export-ydpi="96" />
    <path
       inkscape:connector-curvature="0"
       style="fill:#4eabbf;fill-opacity:1"
       id="path1442"
       fill="#464646"
       d="m 5.4131466,18.553335 a 4,4 0 0 1 -2.83,-1.17 l -1.41,-1.41 a 4,4 0 0 1 0,-5.66 l 2.13,-2.1199998 a 1,1 0 0 1 1.4,1.41 l -2.12,2.1199998 a 2,2 0 0 0 0,2.83 l 1.42,1.42 a 2.06,2.06 0 0 0 2.83,0 l 2.12,-2.12 a 1,1 0 1 1 1.4100004,1.4 l -2.1200004,2.12 a 4,4 0 0 1 -2.83,1.18 z"
       inkscape:export-xdpi="96"
       inkscape:export-ydpi="96" />
    <path
       inkscape:connector-curvature="0"
       style="fill:#4eabbf;fill-opacity:1"
       id="path1444"
       fill="#464646"
       d="m 6.1231466,13.433335 a 1,1 0 0 1 -0.71,-0.29 1,1 0 0 1 0,-1.42 L 11.783147,5.3633352 a 1,1 0 0 1 1.41,0 1,1 0 0 1 0,1.42 L 6.8231466,13.143335 a 1,1 0 0 1 -0.7,0.29 z"
       inkscape:export-xdpi="96"
       inkscape:export-ydpi="96" />
    <use
       height="100%"
       width="100%"
       style="fill:#4eabbf;fill-opacity:1"
       id="use2015"
       xlink:href="#path1440"
       y="0"
       x="0"
       inkscape:export-xdpi="96"
       inkscape:export-ydpi="96" />
    <use
       height="100%"
       width="100%"
       style="fill:#4eabbf;fill-opacity:1"
       id="use2017"
       xlink:href="#path1442"
       y="0"
       x="0"
       inkscape:export-xdpi="96"
       inkscape:export-ydpi="96" />
    <use
       height="100%"
       width="100%"
       style="fill:#4eabbf;fill-opacity:1"
       id="use2019"
       xlink:href="#path1444"
       y="0"
       x="0"
       inkscape:export-xdpi="96"
       inkscape:export-ydpi="96" />
    <use
       height="100%"
       width="100%"
       style="fill:#4eabbf;fill-opacity:1"
       id="use2021"
       xlink:href="#use2015"
       y="0"
       x="0"
       inkscape:export-xdpi="96"
       inkscape:export-ydpi="96" />
    <use
       height="100%"
       width="100%"
       style="fill:#4eabbf;fill-opacity:1"
       id="use2023"
       xlink:href="#use2017"
       y="0"
       x="0"
       inkscape:export-xdpi="96"
       inkscape:export-ydpi="96" />
    <use
       height="100%"
       width="100%"
       style="fill:#4eabbf;fill-opacity:1"
       id="use2025"
       xlink:href="#use2019"
       y="0"
       x="0"
       inkscape:export-xdpi="96"
       inkscape:export-ydpi="96" />
  </g>
</svg>
