<?xml version="1.0" encoding="UTF-8" standalone="no"?>
<svg
   xmlns:dc="http://purl.org/dc/elements/1.1/"
   xmlns:cc="http://creativecommons.org/ns#"
   xmlns:rdf="http://www.w3.org/1999/02/22-rdf-syntax-ns#"
   xmlns:svg="http://www.w3.org/2000/svg"
   xmlns="http://www.w3.org/2000/svg"
   xmlns:sodipodi="http://sodipodi.sourceforge.net/DTD/sodipodi-0.dtd"
   xmlns:inkscape="http://www.inkscape.org/namespaces/inkscape"
   inkscape:version="1.1-dev (ddb55ca, 2020-02-02)"
   sodipodi:docname="instagram.svg"
   xml:space="preserve"
   width="49.200672"
   viewBox="0 0 49.200671 49.2"
   version="1.1"
   id="Layer_1"
   height="49.200001"><metadata
     id="metadata2076"><rdf:RDF><cc:Work
         rdf:about=""><dc:format>image/svg+xml</dc:format><dc:type
           rdf:resource="http://purl.org/dc/dcmitype/StillImage" /><dc:title></dc:title></cc:Work></rdf:RDF></metadata><defs
     id="defs2074" /><sodipodi:namedview
     inkscape:current-layer="Layer_1"
     inkscape:window-maximized="0"
     inkscape:window-y="0"
     inkscape:window-x="0"
     inkscape:cy="23.15"
     inkscape:cx="-1.3027573"
     inkscape:zoom="4.7971781"
     fit-margin-bottom="0"
     fit-margin-right="0"
     fit-margin-left="0"
     fit-margin-top="0"
     showgrid="false"
     id="namedview2072"
     inkscape:window-height="900"
     inkscape:window-width="1440"
     inkscape:pageshadow="2"
     inkscape:pageopacity="0"
     guidetolerance="10"
     gridtolerance="10"
     objecttolerance="10"
     borderopacity="1"
     bordercolor="#666666"
     pagecolor="#ffffff" /><g
     transform="translate(-3.7,-5.2)"
     style="fill:#4eabbf;fill-opacity:1"
     id="g2069"><circle
       style="fill:#4eabbf;fill-opacity:1"
       id="circle2063"
       r="4.4000001"
       cy="30"
       cx="28.1" /><path
       inkscape:connector-curvature="0"
       style="fill:#4eabbf;fill-opacity:1"
       id="path2065"
       d="m 33.6,19.2 h -11 c -1.6,0 -3,0.5 -3.9,1.4 -0.9,0.9 -1.4,2.3 -1.4,3.9 v 11 c 0,1.6 0.5,3 1.5,4 1,0.9 2.3,1.4 3.9,1.4 h 10.9 c 1.6,0 3,-0.5 3.9,-1.4 1,-0.9 1.5,-2.3 1.5,-3.9 v -11 c 0,-1.6 -0.5,-2.9 -1.4,-3.9 -1,-1 -2.3,-1.5 -4,-1.5 z m -5.5,17.6 c -3.8,0 -6.8,-3.1 -6.8,-6.8 0,-3.8 3.1,-6.8 6.8,-6.8 3.7,0 6.9,3 6.9,6.8 0,3.8 -3.1,6.8 -6.9,6.8 z m 7.1,-12.3 c -0.9,0 -1.6,-0.7 -1.6,-1.6 0,-0.9 0.7,-1.6 1.6,-1.6 0.9,0 1.6,0.7 1.6,1.6 0,0.9 -0.7,1.6 -1.6,1.6 z" /><path
       inkscape:connector-curvature="0"
       style="fill:#4eabbf;fill-opacity:1"
       id="path2067"
       d="m 28.3,5.2 c -13.6,0 -24.6,11 -24.6,24.6 0,13.6 11,24.6 24.6,24.6 13.6,0 24.6,-11 24.6,-24.6 C 53,16.2 41.9,5.2 28.3,5.2 Z m 13.1,30.4 c 0,2.3 -0.8,4.3 -2.2,5.7 -1.4,1.4 -3.4,2.1 -5.6,2.1 H 22.7 c -2.2,0 -4.2,-0.7 -5.6,-2.1 -1.5,-1.4 -2.2,-3.4 -2.2,-5.7 v -11 c 0,-4.6 3.1,-7.8 7.8,-7.8 h 11 c 2.3,0 4.2,0.8 5.6,2.2 1.4,1.4 2.1,3.3 2.1,5.6 z" /></g></svg>
