<?xml version="1.0" encoding="UTF-8" standalone="no"?>
<svg
   xmlns:dc="http://purl.org/dc/elements/1.1/"
   xmlns:cc="http://creativecommons.org/ns#"
   xmlns:rdf="http://www.w3.org/1999/02/22-rdf-syntax-ns#"
   xmlns:svg="http://www.w3.org/2000/svg"
   xmlns="http://www.w3.org/2000/svg"
   xmlns:sodipodi="http://sodipodi.sourceforge.net/DTD/sodipodi-0.dtd"
   xmlns:inkscape="http://www.inkscape.org/namespaces/inkscape"
   height="355.57199"
   version="1.1"
   viewBox="0 0 1029.4941 355.57199"
   width="1029.4941"
   xml:space="preserve"
   id="svg1546"
   sodipodi:docname="logo.svg"
   inkscape:export-filename="/Users/marina/Downloads/logo.png"
   inkscape:export-xdpi="96"
   inkscape:export-ydpi="96"
   inkscape:version="1.1-dev (ddb55ca, 2020-02-02)"><style
     id="style2115"></style><metadata
     id="metadata1552"><rdf:RDF><cc:Work
         rdf:about=""><dc:format>image/svg+xml</dc:format><dc:type
           rdf:resource="http://purl.org/dc/dcmitype/StillImage" /><dc:title></dc:title></cc:Work></rdf:RDF></metadata><defs
     id="defs1550" /><sodipodi:namedview
     pagecolor="#ffffff"
     bordercolor="#666666"
     borderopacity="1"
     objecttolerance="10"
     gridtolerance="10"
     guidetolerance="10"
     inkscape:pageopacity="0"
     inkscape:pageshadow="2"
     inkscape:window-width="1440"
     inkscape:window-height="878"
     id="namedview1548"
     showgrid="false"
     inkscape:snap-text-baseline="false"
     fit-margin-top="0"
     fit-margin-left="0"
     fit-margin-right="0"
     fit-margin-bottom="0"
     inkscape:zoom="0.76961943"
     inkscape:cx="594.04325"
     inkscape:cy="153.254"
     inkscape:window-x="42"
     inkscape:window-y="0"
     inkscape:window-maximized="0"
     inkscape:current-layer="g1542" /><g
     id="g1542"
     transform="translate(-26.001,-102.746)"><path
       inkscape:connector-curvature="0"
       id="path1540"
       style="clip-rule:evenodd;fill:#273246;fill-opacity:1;fill-rule:evenodd"
       d="M 149.343,379.685 V 267.623 H 132.262 V 379.685 Z M 128.956,261.168 h 0.081 23.535 0.078 15.771 0.077 4.04 v -10.573 h -63.441 v 10.573 h 4.015 0.077 z m -3.148,118.517 V 267.623 h -9.392 V 379.685 Z M 155.8,267.623 v 112.062 h 9.392 V 267.623 Z M 271.087,379.685 V 267.623 h -17.08 V 379.685 Z M 250.672,261.168 h 0.105 23.535 0.081 15.768 0.077 4.043 v -10.573 h -63.469 v 10.573 h 4.039 0.081 z m -3.119,118.517 V 267.623 h -9.395 v 112.062 z m 29.988,-112.062 v 112.062 h 9.392 V 267.623 Z M 392.828,379.685 V 267.623 H 375.723 V 379.685 Z M 372.417,261.168 h 0.077 23.563 0.078 15.743 0.077 4.043 v -10.573 h -63.445 v 10.573 h 4.043 0.078 z M 369.27,379.685 V 267.623 h -9.367 v 112.062 z m 30.012,-112.062 v 112.062 h 9.367 V 267.623 Z M 51.922,198.96 H 470.546 L 260.59,102.746 Z m 222.391,-60.663 c -3.331,-3.332 -7.949,-5.404 -13.038,-5.404 -5.092,0 -9.682,2.047 -13.041,5.379 -3.331,3.358 -5.38,7.95 -5.38,13.041 0,5.089 2.049,9.707 5.38,13.039 3.334,3.332 7.949,5.405 13.041,5.405 5.117,0 9.707,-2.073 13.038,-5.378 3.334,-3.359 5.404,-7.951 5.404,-13.066 0,-5.091 -2.071,-9.683 -5.404,-13.016 z m -13.039,-11.858 c 6.872,0 13.091,2.781 17.604,7.294 4.489,4.487 7.297,10.704 7.297,17.579 0,6.873 -2.808,13.066 -7.297,17.579 -4.537,4.54 -10.756,7.319 -17.604,7.319 -6.875,0 -13.094,-2.807 -17.579,-7.293 -4.513,-4.514 -7.296,-10.732 -7.296,-17.605 0,-6.849 2.783,-13.068 7.296,-17.579 4.514,-4.512 10.729,-7.294 17.579,-7.294 z M 88.657,402.275 H 433.89 v -16.137 h -21.935 -0.077 -15.743 -0.078 -23.563 -0.077 -15.743 -0.078 -66.357 -0.077 -15.768 -0.081 -23.535 -0.105 -15.74 -0.081 -66.354 -0.077 -15.771 -0.078 -23.535 -0.081 -15.768 -0.077 -24.454 z m 212.05,-151.68 v 13.801 c 0,1.784 -1.442,3.228 -3.225,3.228 h -4.093 v 112.062 h 60.056 V 267.623 h -4.117 c -1.786,0 -3.229,-1.443 -3.229,-3.228 v -13.801 h -45.392 z m -121.716,0 v 13.801 c 0,1.784 -1.467,3.228 -3.226,3.228 h -4.12 v 112.062 h 60.058 V 267.623 h -4.12 c -1.783,0 -3.225,-1.443 -3.225,-3.228 v -13.801 h -45.367 z m -73.226,-6.454 h 0.102 69.898 0.077 51.664 0.077 69.899 0.104 51.661 0.08 69.896 0.08 30.751 v -20.99 h -198.96 c -1.783,0 -3.229,-1.442 -3.229,-3.227 0,-1.759 1.446,-3.228 3.229,-3.228 H 450.055 V 205.413 H 72.495 v 38.728 z m 45.153,-20.991 c -1.783,0 -3.229,-1.442 -3.229,-3.227 0,-1.759 1.446,-3.228 3.229,-3.228 h 45.234 c 1.783,0 3.226,1.469 3.226,3.228 0,1.784 -1.442,3.227 -3.226,3.227 z m 29.491,-34.581 c 1.208,0 2.492,-0.788 2.889,-1.812 1.074,-2.15 -0.551,-4.643 -2.889,-4.643 h -6.454 c -1.232,0 -2.492,0.813 -2.913,1.809 -1.049,2.154 0.579,4.646 2.913,4.646 z m 25.767,0 c 1.231,0 2.492,-0.788 2.913,-1.812 1.074,-2.15 -0.579,-4.643 -2.913,-4.643 h -6.43 c -1.232,0 -2.492,0.813 -2.913,1.809 -1.074,2.154 0.579,4.646 2.913,4.646 z m 25.791,0 c 1.232,0 2.492,-0.788 2.913,-1.812 1.074,-2.15 -0.579,-4.643 -2.913,-4.643 h -6.429 c -1.232,0 -2.492,0.813 -2.913,1.809 -1.074,2.154 0.579,4.646 2.913,4.646 z m 25.791,0 c 1.232,0 2.492,-0.788 2.913,-1.812 1.05,-2.15 -0.579,-4.643 -2.913,-4.643 h -6.454 c -1.207,0 -2.467,0.813 -2.888,1.809 -1.074,2.154 0.551,4.646 2.888,4.646 z m 25.792,0 c 1.207,0 2.491,-0.788 2.885,-1.812 1.077,-2.15 -0.552,-4.643 -2.885,-4.643 h -6.454 c -1.208,0 -2.492,0.813 -2.889,1.809 -1.074,2.154 0.551,4.646 2.889,4.646 z m 25.791,0 c 1.208,0 2.491,-0.788 2.885,-1.812 1.077,-2.15 -0.551,-4.643 -2.885,-4.643 h -6.454 c -1.207,0 -2.492,0.813 -2.885,1.809 -1.077,2.154 0.551,4.646 2.885,4.646 z m 25.792,0 c 1.207,0 2.491,-0.788 2.885,-1.812 1.077,-2.15 -0.552,-4.643 -2.885,-4.643 h -6.455 c -1.231,0 -2.491,0.813 -2.912,1.809 -1.05,2.154 0.578,4.646 2.912,4.646 z m 25.791,0 c 1.207,0 2.467,-0.788 2.889,-1.812 1.073,-2.15 -0.58,-4.643 -2.889,-4.643 h -6.454 c -1.231,0 -2.491,0.813 -2.913,1.809 -1.074,2.154 0.579,4.646 2.913,4.646 z m -212.76,-6.454 c -1.207,0 -2.492,0.813 -2.885,1.809 -1.078,2.154 0.551,4.646 2.885,4.646 h 6.454 c 1.207,0 2.492,-0.788 2.885,-1.812 1.077,-2.15 -0.551,-4.643 -2.885,-4.643 z M 52.631,445.934 c -1.783,0 -3.225,-1.442 -3.225,-3.201 0,-1.784 1.442,-3.227 3.225,-3.227 h 299.764 c 1.786,0 3.229,1.442 3.229,3.227 0,1.759 -1.442,3.201 -3.229,3.201 z m 175.532,12.384 c -1.758,0 -3.229,-1.444 -3.229,-3.227 0,-1.785 1.47,-3.229 3.229,-3.229 h 207.433 c 1.786,0 3.229,1.444 3.229,3.229 0,1.782 -1.442,3.227 -3.229,3.227 z m 228.686,0 c -1.782,0 -3.229,-1.444 -3.229,-3.227 0,-1.785 1.446,-3.229 3.229,-3.229 h 25.921 c 1.787,0 3.229,1.444 3.229,3.229 0,1.782 -1.442,3.227 -3.229,3.227 z M 29.23,457.95 c -1.786,0 -3.229,-1.442 -3.229,-3.228 0,-1.782 1.442,-3.227 3.229,-3.227 h 98.284 c 1.786,0 3.229,1.444 3.229,3.227 0,1.785 -1.442,3.228 -3.229,3.228 z M 60.819,424.865 H 461.755 V 408.729 H 437.195 85.351 60.819 Z"
       sodipodi:nodetypes="cccccccccccccccccccccccccccccccccccccccccccccccccccccccccccccccccccccccccccccccccccccccccscscscscscscsssssccccccccccccccccccccccccccccccssccccssccccssccccsscccccccccccccccccssscccccsssssssscsscssscsscssscsscssscsscssscsscssscsscssscsscssscsscssscsscssssssssssssssssssssssssssssssccccccc"
       inkscape:export-xdpi="96"
       inkscape:export-ydpi="96" /><text
       xml:space="preserve"
       style="font-style:normal;font-weight:normal;font-size:40px;line-height:1.25;font-family:sans-serif;fill:#000000;fill-opacity:1;stroke:none"
       x="486.90088"
       y="330.1431"
       id="text2756"
       inkscape:export-xdpi="96"
       inkscape:export-ydpi="96"><tspan
         sodipodi:role="line"
         id="tspan2754"
         x="486.90088"
         y="330.1431"
         style="font-style:normal;font-variant:normal;font-weight:normal;font-stretch:normal;font-size:77.3333px;font-family:'Hiragino Mincho ProN';-inkscape-font-specification:'Hiragino Mincho ProN Normal';font-variant-ligatures:normal;font-variant-caps:normal;font-variant-numeric:normal;font-variant-east-asian:normal;fill:#b69d74;fill-opacity:1">Kanzlei </tspan><tspan
         sodipodi:role="line"
         x="486.90088"
         y="426.80972"
         id="tspan2758"
         style="font-style:normal;font-variant:normal;font-weight:normal;font-stretch:normal;font-size:77.3333px;font-family:'Hiragino Mincho ProN';-inkscape-font-specification:'Hiragino Mincho ProN Normal';font-variant-ligatures:normal;font-variant-caps:normal;font-variant-numeric:normal;font-variant-east-asian:normal;fill:#b69d74;fill-opacity:1">Lorem &amp; Ipsum</tspan></text></g><g
     id="Layer_1"
     transform="translate(-26.001,-102.746)" /></svg>
